<?xml version="1.0" encoding="UTF-8"?> <svg xmlns="http://www.w3.org/2000/svg" xmlns:xlink="http://www.w3.org/1999/xlink" version="1.1" id="Layer_1" x="0px" y="0px" viewBox="0 0 223 108" style="enable-background:new 0 0 223 108;" xml:space="preserve"> <style type="text/css"> .st0{fill:#231F20;} .st1{fill:#FFFFFF;} </style> <g> <g> <g> <g> <polygon class="st0" points="165.79,16.8 165.79,54.07 173.43,54.07 173.43,38.44 180.04,38.44 180.04,54.07 187.63,54.07 187.63,16.8 180.05,16.8 180.05,31.65 173.42,31.65 173.42,16.8 "></polygon> <polygon class="st0" points="106.92,16.8 106.92,54.07 113.91,54.07 113.91,30.38 118.02,54.07 122.67,54.07 126.84,30.38 126.84,54.07 133.85,54.07 133.85,16.8 123.46,16.8 120.39,34.72 117.31,16.8 "></polygon> <polygon class="st0" points="63.03,16.8 67.68,33.45 72.33,16.8 79.92,16.8 71.74,41.84 71.74,54.07 63.63,54.07 63.63,41.84 55.44,16.8 "></polygon> <path class="st0" d="M96.04,16.8h-10.1l-6.63,37.27h7.54l1.27-8.87h5.7l1.27,8.87h7.59L96.04,16.8z M90.97,25.22l1.89,13.21 h-3.77L90.97,25.22z"></path> <path class="st0" d="M154.86,16.8h-10.1l-6.63,37.27h7.54l1.27-8.87h5.7l1.27,8.87h7.59L154.86,16.8z M149.8,25.22l1.89,13.21 h-3.77L149.8,25.22z"></path> <path class="st0" d="M208.69,16.8h-10.1l-6.63,37.27h7.55l1.27-8.87h5.7l1.27,8.87h7.59L208.69,16.8z M203.62,25.22l1.89,13.21 h-3.77L203.62,25.22z"></path> </g> </g> <g> <path class="st0" d="M7.67,35.39c0-12.18,9.87-22.05,22.05-22.05c12.18,0,22.05,9.87,22.05,22.05c0,12.18-9.87,22.05-22.05,22.05 C17.54,57.44,7.67,47.57,7.67,35.39z"></path> <path class="st1" d="M29.72,56.56c11.69,0,21.17-9.48,21.17-21.17c0-11.69-9.48-21.17-21.17-21.17S8.55,23.7,8.55,35.39 C8.55,47.08,18.03,56.56,29.72,56.56z"></path> <path class="st0" d="M47.68,45.76c-0.09,0.16-0.26,0.24-0.43,0.22l-2.95-0.65c-3.18,4.65-8.52,7.71-14.58,7.71 c-6.06,0-11.4-3.06-14.58-7.71l-2.95,0.65c-0.17,0.02-0.35-0.06-0.44-0.22c-0.09-0.16-0.07-0.35,0.03-0.48l2.04-2.23 c-1.12-2.32-1.75-4.92-1.75-7.66c0-9.3,7.2-16.92,16.33-17.59l0.91-2.88c0.07-0.16,0.22-0.27,0.41-0.27 c0.18,0,0.34,0.11,0.4,0.27l0.91,2.88c9.13,0.67,16.33,8.29,16.33,17.59c0,2.75-0.63,5.34-1.75,7.66l2.04,2.22 C47.75,45.41,47.77,45.6,47.68,45.76z M47.27,45.39l-4.44-4.74c-0.62,0.27-1.35,0.25-1.98-0.12c-0.63-0.36-1.01-0.98-1.09-1.65 l0,0.01c-0.12-1-0.69-1.93-1.63-2.48l-1.8-1.04l8.01-4.63l-0.88-1.53l-8.9,5.14l-1.55-0.89v-1.78l8.9-5.14l-0.88-1.53l-8.02,4.63 v-2.08c0-1.08-0.52-2.05-1.33-2.65l0.01,0c-0.54-0.4-0.88-1.04-0.88-1.77c0-0.72,0.35-1.37,0.89-1.77l0,0l-1.88-6.21 c-0.01-0.05-0.05-0.11-0.11-0.11c-0.06,0-0.11,0.05-0.11,0.11l-1.88,6.21c0.54,0.4,0.89,1.05,0.89,1.77 c0,0.72-0.35,1.36-0.88,1.77l0.01,0c-0.81,0.6-1.33,1.57-1.33,2.65v2.07l-8.01-4.63l-0.88,1.53l8.9,5.14v1.78l-1.54,0.89 l-8.9-5.14l-0.88,1.53l8.02,4.63l-1.81,1.04l0.01-0.01c-0.94,0.54-1.51,1.47-1.63,2.48l0-0.01c-0.08,0.67-0.46,1.29-1.09,1.65 c-0.63,0.36-1.36,0.38-1.98,0.11l0,0l-4.43,4.73c-0.04,0.03-0.07,0.1-0.04,0.15c0.03,0.05,0.1,0.07,0.15,0.04l6.32-1.47 c0.08-0.67,0.46-1.29,1.09-1.65c0.63-0.36,1.35-0.38,1.97-0.12l-0.01-0.01c0.93,0.4,2.02,0.37,2.96-0.17l1.8-1.04v9.25h1.77V40.1 l1.55-0.89l1.54,0.89v10.28h1.76v-9.26l1.8,1.04c0.94,0.54,2.03,0.57,2.96,0.17l-0.01,0.01c0.62-0.26,1.35-0.25,1.97,0.12 c0.63,0.36,1.01,0.99,1.09,1.65l0,0l6.32,1.47c0.05,0.02,0.12,0.01,0.15-0.04C47.34,45.49,47.32,45.42,47.27,45.39z M31.26,36.28 v-1.78l-1.54-0.89l-1.54,0.89v1.78l1.54,0.89L31.26,36.28z M28.17,30.67l1.55,0.89l1.54-0.89v-3.1c0-0.85-0.69-1.54-1.54-1.54 c-0.85,0-1.54,0.69-1.54,1.54V30.67z M26.41,39.08V37.3l-1.54-0.89l-2.68,1.55c-0.74,0.43-0.99,1.37-0.57,2.11 c0.43,0.74,1.37,0.99,2.11,0.56L26.41,39.08z M37.25,37.95l-2.68-1.55l-1.55,0.89v1.78l2.68,1.55c0.74,0.43,1.68,0.17,2.11-0.56 C38.24,39.32,37.99,38.38,37.25,37.95z M38.13,36.42C38.13,36.42,38.13,36.42,38.13,36.42L38.13,36.42L38.13,36.42z M34.82,42.15 L34.82,42.15L34.82,42.15L34.82,42.15z M24.6,42.16L24.6,42.16c0.01,0,0.01,0,0.01-0.01L24.6,42.16z"></path> </g> </g> <g> <path class="st0" d="M26.22,90.34V74.6h4.66c2.11,0,4.38,0.78,4.38,4.49c0,3.57-2.79,4.31-4.4,4.31h-2.64v6.93H26.22z M28.22,81.66h2.2c0.83,0,2.79-0.22,2.79-2.68c0-2.4-1.79-2.64-2.22-2.64h-2.77V81.66z"></path> <path class="st0" d="M39.4,90.34V74.6h2v13.99h5.78v1.74H39.4z"></path> <path class="st0" d="M53.96,74.6h2.55l5.12,15.73h-2.24l-1.13-3.75h-6.08l-1.18,3.75h-2.03L53.96,74.6z M55.18,76.46h-0.04 l-2.46,8.39h5.03L55.18,76.46z"></path> <path class="st0" d="M75.94,74.6v15.73H73.2L66.99,76.7h-0.04v13.64h-1.79V74.6h2.83l6.12,13.47h0.04V74.6H75.94z"></path> <path class="st0" d="M87.12,74.6h4.84c2,0,3.44,0.72,4.23,2.4c0.63,1.33,0.7,4.47,0.7,4.97c0,3.36-0.31,5.3-0.96,6.34 c-0.85,1.35-2.44,2.03-5.19,2.03h-3.62V74.6z M89.13,88.59h1.9c2.79,0,3.81-1.05,3.81-4.71v-3.18c0-3.18-0.98-4.36-3.07-4.36 h-2.64V88.59z"></path> <path class="st0" d="M101.72,90.34V74.6h8.11v1.74h-6.1v5.06h5.67v1.74h-5.67v5.45h6.23v1.74H101.72z"></path> <path class="st0" d="M123.67,74.6h2.55l5.12,15.73h-2.24l-1.13-3.75h-6.08l-1.18,3.75h-2.03L123.67,74.6z M124.89,76.46h-0.04 l-2.46,8.39h5.03L124.89,76.46z"></path> <path class="st0" d="M134.89,90.34V74.6h2.01v6.8h5.51v-6.8h2.01v15.73h-2.01v-7.19h-5.51v7.19H134.89z"></path> <path class="st0" d="M149.33,84.58v-5.16c0-3.14,1.61-5.14,4.95-5.14c3.33,0,4.95,2.01,4.95,5.14v5.16c0,4.36-1.61,6.08-4.95,6.08 C150.95,90.66,149.33,88.94,149.33,84.58z M157.18,84.67v-5.32c0-3.29-2.27-3.4-2.9-3.4c-0.63,0-2.9,0.11-2.9,3.4v5.32 c0,3.44,1,4.31,2.9,4.31C156.18,88.99,157.18,88.11,157.18,84.67z"></path> <path class="st0" d="M166.01,83.1v7.24h-2V74.6h5.43c2.79,0,3.77,1.96,3.77,3.92c0,1.85-1.02,3.27-2.88,3.6v0.04 c1.81,0.28,2.46,0.89,2.57,4.05c0.02,0.68,0.24,3.14,0.54,4.12h-2.09c-0.57-1.09-0.44-3.14-0.61-5.23 c-0.15-1.92-1.7-2.01-2.38-2.01H166.01z M166.01,81.36h3.01c1.44,0,2.14-1.24,2.14-2.62c0-1.13-0.57-2.4-2.11-2.4h-3.03V81.36z"></path> <path class="st0" d="M179.45,83.1v7.24h-2V74.6h5.43c2.79,0,3.77,1.96,3.77,3.92c0,1.85-1.02,3.27-2.88,3.6v0.04 c1.81,0.28,2.46,0.89,2.57,4.05c0.02,0.68,0.24,3.14,0.54,4.12h-2.09c-0.57-1.09-0.44-3.14-0.61-5.23 c-0.15-1.92-1.7-2.01-2.38-2.01H179.45z M179.45,81.36h3.01c1.44,0,2.14-1.24,2.14-2.62c0-1.13-0.57-2.4-2.11-2.4h-3.03V81.36z"></path> <path class="st0" d="M190.87,84.58v-5.16c0-3.14,1.61-5.14,4.95-5.14c3.33,0,4.95,2.01,4.95,5.14v5.16c0,4.36-1.61,6.08-4.95,6.08 C192.48,90.66,190.87,88.94,190.87,84.58z M198.71,84.67v-5.32c0-3.29-2.27-3.4-2.9-3.4c-0.63,0-2.9,0.11-2.9,3.4v5.32 c0,3.44,1,4.31,2.9,4.31C197.71,88.99,198.71,88.11,198.71,84.67z"></path> </g> <rect x="9.38" y="67.1" class="st0" width="204.34" height="1.35"></rect> </g> </svg> 